<svg xmlns="http://www.w3.org/2000/svg" viewBox="0 0 64 64">
    <defs>
        <style>
            .cls-1 {
                fill: #965500;
            }

            .cls-2 {
                fill: #281111;
            }

            .cls-3 {
                fill: #703f00;
            }

            .cls-4 {
                fill: #3e2c27;
            }
        </style>
    </defs>
    <title>bear</title>
    <g id="bear">
        <path class="cls-1"
            d="M57,40.26C57,54.07,45.81,57,32,57S7,54.07,7,40.26c0-6.09,2.18-16.5,5.81-21.77.43-.63.88-1.24,1.35-1.84a28.61,28.61,0,0,1,6.62-6.12,21.93,21.93,0,0,1,3.1-1.72,19.12,19.12,0,0,1,16.24,0,21.93,21.93,0,0,1,3.1,1.72,28.61,28.61,0,0,1,6.62,6.12c.47.6.92,1.21,1.35,1.84C54.82,23.76,57,34.17,57,40.26Z" />
        <circle class="cls-2" cx="23.5" cy="23.5" r="1.5" />
        <circle class="cls-2" cx="40.5" cy="23.5" r="1.5" />
        <path class="cls-3" d="M53,12a5,5,0,0,1-3.16,4.65,28.61,28.61,0,0,0-6.62-6.12A5,5,0,0,1,53,12Z" />
        <path class="cls-3" d="M20.78,10.53a28.61,28.61,0,0,0-6.62,6.12,5,5,0,1,1,6.62-6.12Z" />
        <path class="cls-3"
            d="M36.53,51H27.47a4,4,0,0,1-4-4.44l.74-6.6a7.83,7.83,0,0,1,4.83-6.39.49.49,0,0,0,.05.16,1.33,1.33,0,0,0,.66.64l2.23,1,2.23-1a1.33,1.33,0,0,0,.66-.64.49.49,0,0,0,0-.16A7.85,7.85,0,0,1,39.77,40l.74,6.6A4,4,0,0,1,36.53,51Z" />
        <path class="cls-2" d="M32,46a1,1,0,0,1-1-1V34a1,1,0,0,1,2,0V45A1,1,0,0,1,32,46Z" />
        <path class="cls-2" d="M29,48a1,1,0,0,1-.55-1.83l3-2a1,1,0,0,1,1.1,1.66l-3,2A.94.94,0,0,1,29,48Z" />
        <path class="cls-2" d="M35,48a.94.94,0,0,1-.55-.17l-3-2a1,1,0,0,1,1.1-1.66l3,2A1,1,0,0,1,35,48Z" />
        <path class="cls-4"
            d="M35,33.26a.85.85,0,0,1-.06.31.49.49,0,0,1,0,.16,1.33,1.33,0,0,1-.66.64l-2.23,1-2.23-1a1.33,1.33,0,0,1-.66-.64.49.49,0,0,1-.05-.16.85.85,0,0,1-.06-.31A1.33,1.33,0,0,1,30.39,32h3.22A1.33,1.33,0,0,1,35,33.26Z" />
        <path class="cls-2"
            d="M32,58C19.9,58,6,56,6,40.26c0-6.56,2.29-17,6-22.34.42-.62.88-1.24,1.38-1.89a30.65,30.65,0,0,1,2.29-2.58,1,1,0,0,1,1.42,1.42,26.59,26.59,0,0,0-2.14,2.4c-.47.61-.9,1.19-1.3,1.78C10.26,24,8,34,8,40.26,8,51.29,15.18,56,32,56c7.64,0,13-.92,16.82-2.88a1,1,0,1,1,.92,1.78C45.61,57,40,58,32,58Z" />
        <path class="cls-2"
            d="M55.19,49.4a1,1,0,0,1-.88-1.47A15.81,15.81,0,0,0,56,40.26C56,34,53.74,24,50.37,19.06c-.41-.6-.84-1.18-1.32-1.79a27.24,27.24,0,0,0-6.38-5.9,21,21,0,0,0-3-1.65,18.24,18.24,0,0,0-15.42,0,22,22,0,0,0-3,1.64c-.45.31-.91.62-1.35,1a1,1,0,1,1-1.24-1.58c.51-.39,1-.75,1.48-1.05a23,23,0,0,1,3.25-1.8,20.19,20.19,0,0,1,17.06,0,23.27,23.27,0,0,1,3.24,1.79A29.63,29.63,0,0,1,50.62,16c.51.65,1,1.27,1.4,1.9,3.69,5.36,6,15.77,6,22.33a18,18,0,0,1-1.93,8.62A1,1,0,0,1,55.19,49.4Z" />
        <path class="cls-2"
            d="M52.57,52.77A1,1,0,0,1,51.92,51l.21-.19a1,1,0,0,1,1.3,1.52l-.21.19A1,1,0,0,1,52.57,52.77Z" />
        <path class="cls-2"
            d="M49.84,17.65a1,1,0,0,1-.78-.38,27.48,27.48,0,0,0-6.39-5.9,1,1,0,0,1-.41-1.14A6.1,6.1,0,0,1,44.64,7a1,1,0,1,1,1.12,1.66,4,4,0,0,0-1.31,1.47,29,29,0,0,1,5.66,5.24A4,4,0,0,0,52,12a4,4,0,0,0-3.2-3.92,1,1,0,1,1,.4-2,6,6,0,0,1,1,11.46A1,1,0,0,1,49.84,17.65Z" />
        <path class="cls-2"
            d="M14.16,17.65a1,1,0,0,1-.37-.07,6,6,0,1,1,8-7.35,1,1,0,0,1-.41,1.13c-.45.31-.91.62-1.35,1a1,1,0,1,1-1.24-1.58c.27-.21.55-.41.81-.59A4,4,0,0,0,12,12a4,4,0,0,0,1.89,3.4c.58-.69,1.17-1.35,1.77-2a1,1,0,0,1,1.42,1.42,26.59,26.59,0,0,0-2.14,2.4A1,1,0,0,1,14.16,17.65Z" />
        <path class="cls-2"
            d="M36.53,52H27.47a5,5,0,0,1-5-5.55l.29-2.57a1,1,0,0,1,1.1-.88,1,1,0,0,1,.88,1.1l-.29,2.57a3,3,0,0,0,3,3.33h9.06a3,3,0,0,0,3-3.33l-.74-6.6a6.87,6.87,0,0,0-3.49-5.23,2.21,2.21,0,0,1-.64.44l-2.24,1a1,1,0,0,1-.82,0l-2.23-1a2.13,2.13,0,0,1-.65-.44,6.84,6.84,0,0,0-3.49,5.23.51.51,0,0,1,0,.13,1,1,0,0,1-2-.38v0a8.8,8.8,0,0,1,5.43-7.13,1,1,0,0,1,.94.1,1,1,0,0,1,.41.59.31.31,0,0,0,.16.13l1.81.82,1.82-.82a.49.49,0,0,0,.15-.12,1,1,0,0,1,.41-.6,1,1,0,0,1,.93-.1,8.8,8.8,0,0,1,5.45,7.21l.74,6.6a5,5,0,0,1-5,5.55ZM34,33.32Z" />
        <path class="cls-2"
            d="M32,36.38a1,1,0,0,1-.41-.09l-2.23-1a2.3,2.3,0,0,1-1.16-1.14,1.69,1.69,0,0,1-.11-.32,1.77,1.77,0,0,1-.09-.56A2.33,2.33,0,0,1,30.39,31h3.22A2.33,2.33,0,0,1,36,33.26a1.77,1.77,0,0,1-.09.56,1.52,1.52,0,0,1-.08.27,2.4,2.4,0,0,1-1.18,1.19l-2.24,1A1,1,0,0,1,32,36.38Zm-2-3.07a.37.37,0,0,0,.17.15l1.81.82,1.82-.82a.49.49,0,0,0,.15-.12l0-.1a.38.38,0,0,0-.39-.24H30.39c-.24,0-.39.15-.39.26S30,33.3,30,33.31Zm3.92.26Zm0-.25Z" />
    </g>
</svg>