<svg xml:space="preserve" style="enable-background:new 0 0 2834.6 2834.6;" viewBox="155 1200 2420 555" y="0px" x="0x" xmlns:xlink="http://www.w3.org/1999/xlink" xmlns="http://www.w3.org/2000/svg" id="Layer_1" version="1.1">
	<style type="text/css">
		.st0 {
			fill: #333333;
		}

		.st1 {
			fill: #FFFFFF;
			stroke: #333333;
			stroke-width: 23.7356;
			stroke-miterlimit: 10;
		}

		.st2 {
			fill: #FFFFFF;
		}

		.st3 {
			fill: #FFFFFF;
			stroke: #333333;
			stroke-width: 15.2118;
			stroke-miterlimit: 10;
		}
	</style>
	<g>
		<path d="M735.9,1673.9l-0.3-202.2c0,0,0.4-148,141.7-148s141.3,148,141.3,148v202.2h-67.4v-202.2
		c0,0-0.6-81.4-74.1-81.4s-74.1,81.4-74.1,81.4v202.2H735.9z" class="st0"></path>
		<path d="M951.4,1673.9l-0.3-202.2c0,0,0.4-148,141.7-148s141.3,148,141.3,148v202.2h-67.4v-202.2
		c0,0-0.6-81.4-74.1-81.4s-74.1,81.4-74.1,81.4v202.2H951.4z" class="st0"></path>
		<path d="M1570.7,1323.7l0.3,202.2c0,0-0.4,148-141.7,148s-141.3-148-141.3-148v-202.2h67.4v202.2
		c0,0,0.6,81.4,74.1,81.4c73.5,0,74.1-81.4,74.1-81.4v-202.2H1570.7z" class="st0"></path>
		<path d="M1624.8,1323.7h67.1v350.2c0,0,0.7,67.2-66.1,67.2" class="st0"></path>
		<rect height="350.2" width="67.4" class="st0" y="1323.7" x="1745.8"></rect>
		<path d="M1867.8,1673.9l-0.3-202.2c0,0,0.4-148,141.7-148s141.3,148,141.3,148v202.2H2083v-202.2
		c0,0-0.6-81.4-74.1-81.4c-73.5,0-74.1,81.4-74.1,81.4v202.2H1867.8z" class="st0"></path>
		<path d="M2364.3,1323.7c-96.4,0-174.6,78.2-174.6,174.6c0,96.4,78.2,174.6,174.6,174.6c96.4,0,174.6-78.2,174.6-174.6
		C2539,1401.9,2460.8,1323.7,2364.3,1323.7z M2364.3,1605.3c-59.2,0-107.1-48-107.1-107.1c0-59.2,48-107.1,107.1-107.1
		c59.2,0,107.1,48,107.1,107.1C2471.5,1557.3,2423.5,1605.3,2364.3,1605.3z" class="st0"></path>
		<rect height="350.2" width="67.6" class="st0" y="1323.7" x="2485.9"></rect>
		<circle r="34" cy="1247.8" cx="1657.9" class="st0"></circle>
		<circle r="34" cy="1247.8" cx="1779.5" class="st0"></circle>
	</g>
	<g>
		<g>
			<path d="M327.8,1281.1c0,0-16.6-28-54.5-28c-14,0-33.4,7.5-58.4,4.8c-25-2.7-39.1-14.6-39.1-14.6
			c0,8.6,3.1,153.1,78.3,155" class="st3"></path>
			<path d="M578.6,1294.3c-66.8,0-97.9-33.2-191-33.2c-23.9,0-45,9.6-63.5,26.4c46,1.1,96.9,38.8,151.1,38.8
			c55.4,0,129-5.4,129-5.4s0.7,7.2,0.7,22.4c0,15.2-247.1,97.2-275.7,125.8c-60.7,49.1-11.8,122.7-11.8,122.7s-32.8-20.4-32.8-31.7
			c0,0,7.9,90.7,40.9,90.7c29.3,0,134.6-116.2,157.7-142l0,0c0,0,217.8-216,221.1-236.8l4-11.1
			C708.2,1261.2,629.8,1294.3,578.6,1294.3z" class="st3"></path>
		</g>
		<g>
			<path d="M267.7,1362c-47.2,0-49.7-75.5-49.7-75.5s37.5-9.5,64.5-9.5c27,0,45.7,5.6,45.7,5.6" class="st0"></path>
			<path d="M640.4,1284c0,28.3,24.7,36.7,24.7,36.7l43.1-55.8L640.4,1284z" class="st0"></path>
			<path d="M606.4,1318.2c0,0-1.5,12.6-1.5,27.7c0,15.2-249.4,95.1-277.9,123.7c-60.7,49.1-6,127.1-6,127.1
			s-38.6-15.2-38.6-26.5c0,0,7.9,81.2,40.9,81.2c29.3,0,134.6-116.2,157.7-142l17,158.3H217.6c0-138.5,32-314,104.3-379.7
			c46,1.1,93.9,41.3,148.1,41.3C525.4,1329.4,606.4,1318.2,606.4,1318.2z" class="st0"></path>
			<path d="M462.2,1354c0-16-50.3-2.9-50.3,15.4C412,1387.7,462.2,1370.5,462.2,1354z" class="st2"></path>
		</g>
	</g>
</svg>